<?xml version="1.0" encoding="UTF-8"?>
<svg xmlns="http://www.w3.org/2000/svg" xmlns:xlink="http://www.w3.org/1999/xlink" viewBox="0 0 128 128" width="128px" height="128px">
<g id="surface32692826">
<path style=" stroke:none;fill-rule:nonzero;fill:rgb(100%,100%,100%);fill-opacity:1;" d="M 50.015625 112.015625 C 50.011719 111.277344 50.003906 108.089844 49.996094 105.105469 L 49.992188 102.007812 C 36.535156 103.835938 33.277344 94.445312 33.238281 94.347656 C 31.371094 89.609375 28.816406 88.257812 28.707031 88.199219 L 28.460938 88.054688 C 27.535156 87.425781 25.078125 85.742188 25.777344 83.53125 C 26.40625 81.535156 28.847656 81.328125 29.957031 81.367188 C 36.105469 81.796875 39.21875 87.320312 39.347656 87.554688 C 42.484375 92.933594 47.273438 92.378906 50.363281 91.242188 C 50.652344 89.867188 51.097656 88.605469 51.683594 87.488281 C 41.769531 85.730469 30.539062 80.457031 30.539062 61.28125 C 30.539062 56.015625 32.179688 51.359375 35.421875 47.421875 C 34.699219 45.011719 33.875 40.089844 36.3125 33.890625 L 36.660156 33.007812 L 37.566406 32.71875 C 38.398438 32.445312 42.941406 31.472656 52.285156 37.585938 C 56.140625 36.597656 60.222656 36.089844 64.433594 36.066406 C 68.660156 36.089844 72.746094 36.597656 76.613281 37.585938 C 85.945312 31.46875 90.480469 32.457031 91.3125 32.71875 L 92.214844 33.011719 L 92.5625 33.890625 C 95.015625 40.085938 94.191406 45.007812 93.464844 47.421875 C 96.703125 51.347656 98.34375 56.003906 98.34375 61.28125 C 98.34375 80.460938 87.101562 85.71875 77.164062 87.453125 C 78.292969 89.585938 78.902344 92.257812 78.902344 95.210938 C 78.902344 98.574219 78.886719 109.617188 78.871094 112.015625 L 74.871094 111.984375 C 74.886719 109.59375 74.902344 98.570312 74.902344 95.207031 C 74.902344 90.324219 73.015625 88.164062 72.203125 87.460938 L 68.742188 84.464844 L 73.289062 83.960938 C 83.699219 82.804688 94.339844 79.203125 94.339844 61.277344 C 94.339844 56.617188 92.785156 52.554688 89.71875 49.207031 L 88.859375 48.269531 L 89.34375 47.09375 C 89.675781 46.292969 91.132812 42.210938 89.257812 36.511719 C 87.742188 36.601562 84.121094 37.316406 78.089844 41.40625 L 77.320312 41.925781 L 76.433594 41.679688 C 72.707031 40.640625 68.554688 40.085938 64.429688 40.066406 C 60.324219 40.085938 56.183594 40.640625 52.460938 41.679688 L 51.570312 41.925781 L 50.804688 41.40625 C 44.769531 37.316406 41.140625 36.597656 39.617188 36.507812 C 37.746094 42.210938 39.207031 46.292969 39.539062 47.09375 L 40.023438 48.269531 L 39.164062 49.207031 C 36.09375 52.566406 34.535156 56.628906 34.535156 61.277344 C 34.535156 79.195312 45.15625 82.816406 55.542969 84 L 60.046875 84.511719 L 56.632812 87.492188 C 55.886719 88.140625 54.570312 89.714844 54.125 92.945312 L 53.972656 94.042969 L 52.960938 94.496094 C 50.320312 95.683594 41.285156 98.820312 35.867188 89.527344 C 35.835938 89.476562 34.777344 87.636719 32.863281 86.414062 C 34.152344 87.691406 35.726562 89.761719 36.996094 92.988281 C 37.128906 93.367188 39.710938 100.230469 51.558594 97.664062 L 53.96875 97.140625 L 53.992188 105.097656 C 54 108.070312 54.007812 111.25 54.011719 111.984375 Z M 50.015625 112.015625 "/>
<path style=" stroke:none;fill-rule:nonzero;fill:rgb(100%,100%,100%);fill-opacity:1;" d="M 64 116 C 35.324219 116 12 92.675781 12 64 C 12 35.324219 35.324219 12 64 12 C 92.675781 12 116 35.324219 116 64 C 116 92.675781 92.675781 116 64 116 Z M 64 16 C 37.535156 16 16 37.535156 16 64 C 16 90.464844 37.535156 112 64 112 C 90.464844 112 112 90.464844 112 64 C 112 37.535156 90.464844 16 64 16 Z M 64 16 "/>
</g>
</svg>
